<?xml version="1.0" encoding="utf-8"?>
<!-- Generator: Adobe Illustrator 15.1.0, SVG Export Plug-In . SVG Version: 6.00 Build 0)  -->
<!DOCTYPE svg PUBLIC "-//W3C//DTD SVG 1.1//EN" "http://www.w3.org/Graphics/SVG/1.1/DTD/svg11.dtd">
<svg version="1.1" id="Layer_1" xmlns="http://www.w3.org/2000/svg" xmlns:xlink="http://www.w3.org/1999/xlink" x="0px" y="0px"
	 width="512px" height="512px" viewBox="0 0 512 512" enable-background="new 0 0 512 512" xml:space="preserve">
<g>
	<rect x="46.816" y="460.34" fill="#F4F6F9" width="422.508" height="36.563"/>
</g>
<path fill="#E5E8EC" d="M458.668,479.996c0,5.906,4.766,10.672,10.656,10.672V469.34
	C463.434,469.34,458.668,474.121,458.668,479.996z"/>
<g>
	<path fill="#EC5564" d="M62.535,469.449h406.789c5.89,0,10.671-4.767,10.671-10.672V10.677c0-5.891-4.781-10.672-10.671-10.672
		H74.676c-23.562,0-42.671,19.109-42.671,42.671v0.016v394.867v21.22v21.219c0,17.687,14.327,31.999,31.999,31.999h405.32l0,0
		c5.89,0,10.671-4.781,10.671-10.656c0-5.906-4.781-10.671-10.671-10.671h-0.017H64.004c-5.875,0-10.672-4.781-10.672-10.672
		C53.332,474.621,57.348,470.168,62.535,469.449z"/>
</g>
<g>
	<path fill="#E5E8EC" d="M180.631,264.232v-98.828l-5.805-2.419c-22.267-9.289-36.669-30.892-36.669-55.012
		c0-32.855,26.731-59.587,59.586-59.587c20.567,0,20.898-14.624,31.901,2.792l21.963-10.615l12.536,2.073
		c11.003-17.429,29.828,5.75,50.396,5.75c32.855,0,59.572,26.732,59.572,59.587c0,24.12-14.389,45.723-36.656,55.012l-5.805,2.419
		v98.828H180.631z"/>
	<g>
		<path fill="#B6B6B6" d="M314.539,38.947c-6.511,0-12.801,0.913-18.771,2.599c-11.044-8.293-24.755-13.214-39.627-13.214
			s-28.598,4.92-39.627,13.214c-5.971-1.686-12.261-2.599-18.771-2.599c-38.122,0-69.014,30.906-69.014,69.027
			c0,28.708,17.526,53.312,42.461,63.72v101.978h169.886V171.694c24.949-10.409,42.476-35.012,42.476-63.72
			C383.552,69.853,352.659,38.947,314.539,38.947z M333.82,154.278l-11.61,4.838v12.578v83.098h-0.015
			c0-5.197-4.229-9.426-9.44-9.426c-5.211,0-9.44,4.229-9.44,9.426h-9.427c0-5.197-4.229-9.426-9.441-9.426
			c-5.211,0-9.44,4.229-9.44,9.426h-9.425c0-5.197-4.229-9.426-9.441-9.426s-9.441,4.229-9.441,9.426h-9.426
			c0-5.197-4.229-9.426-9.44-9.426s-9.44,4.229-9.44,9.426h-9.427c0-5.197-4.229-9.426-9.44-9.426c-5.21,0-9.439,4.229-9.439,9.426
			h-0.015v-83.098v-12.578l-11.61-4.838c-18.744-7.823-30.865-25.999-30.865-46.304c0-27.658,22.488-50.147,50.146-50.147
			c1.106,0,2.211,0.042,3.302,0.11c-6.647,10.036-10.628,21.991-10.932,34.873c-0.096,0.511-0.152,1.037-0.152,1.575
			c0,5.212,4.229,9.44,9.439,9.44c5.211,0,9.441-4.229,9.441-9.44h0.125c0-26.013,21.162-47.174,47.175-47.174
			c25.598,0,46.483,20.484,47.146,45.931c-0.054,0.415-0.096,0.815-0.096,1.243c0,5.212,4.229,9.44,9.44,9.44
			s9.441-4.229,9.441-9.44h0.124c0-13.476-4.049-25.999-10.974-36.449c1.105-0.068,2.196-0.11,3.316-0.11
			c27.645,0,50.146,22.489,50.146,50.147C364.684,128.279,352.563,146.455,333.82,154.278z"/>
		<path fill="#B6B6B6" d="M227.709,141.562c0-5.211-4.229-9.427-9.44-9.427s-9.427,4.216-9.427,9.427v0.014v47.175l0,0
			c0,5.211,4.216,9.426,9.427,9.426c5.21,0,9.44-4.216,9.44-9.426l0,0v-47.175V141.562z"/>
		<path fill="#B6B6B6" d="M265.457,141.562c0-5.211-4.229-9.427-9.441-9.427s-9.44,4.216-9.44,9.427v0.014v47.175l0,0
			c0,5.211,4.229,9.426,9.44,9.426s9.441-4.216,9.441-9.426l0,0v-47.175V141.562z"/>
		<path fill="#B6B6B6" d="M303.19,141.562c0-5.211-4.217-9.427-9.427-9.427s-9.44,4.216-9.44,9.427v0.014v47.175l0,0
			c0,5.211,4.229,9.426,9.44,9.426s9.427-4.216,9.427-9.426l0,0v-47.175V141.562z"/>
	</g>
</g>
<text transform="matrix(1 0 0 1 116.7021 435.8447)" fill="#E5E8EC" font-family="'FrankRuhlHofshi-Bold'" font-size="205.8923">RH</text>
</svg>
