<?xml version="1.0" encoding="utf-8"?>
<!-- Generator: Adobe Illustrator 15.1.0, SVG Export Plug-In . SVG Version: 6.00 Build 0)  -->
<!DOCTYPE svg PUBLIC "-//W3C//DTD SVG 1.1//EN" "http://www.w3.org/Graphics/SVG/1.1/DTD/svg11.dtd">
<svg version="1.1" id="Layer_1" xmlns="http://www.w3.org/2000/svg" xmlns:xlink="http://www.w3.org/1999/xlink" x="0px" y="0px"
	 width="512px" height="512px" viewBox="0 0 512 512" enable-background="new 0 0 512 512" xml:space="preserve">
<circle fill="#FFFFFF" cx="256" cy="256.005" r="256"/>
<g>
	<g>
		<rect x="109.386" y="399.22" fill="#F4F6F9" width="296.13" height="25.626"/>
	</g>
	<path fill="#E5E8EC" d="M398.047,412.996c0,4.14,3.341,7.479,7.469,7.479v-14.948C401.388,405.527,398.047,408.878,398.047,412.996
		z"/>
	<g>
		<path fill="#D200B5" d="M120.403,405.604h285.112c4.128,0,7.479-3.341,7.479-7.479V84.057c0-4.129-3.352-7.48-7.479-7.48H128.912
			c-16.514,0-29.907,13.394-29.907,29.908v0.011v276.756v14.874v14.871c0,12.396,10.042,22.428,22.428,22.428h284.083l0,0
			c4.128,0,7.479-3.351,7.479-7.469c0-4.14-3.352-7.479-7.479-7.479h-0.012H121.433c-4.118,0-7.48-3.352-7.48-7.48
			C113.953,409.229,116.768,406.107,120.403,405.604z"/>
	</g>
	<g>
		<path fill="#E5E8EC" d="M203.175,261.771v-69.268l-4.068-1.695c-15.607-6.51-25.701-21.652-25.701-38.557
			c0-23.028,18.735-41.764,41.763-41.764c14.415,0,14.647-10.25,22.359,1.957l15.394-7.44l8.786,1.453
			c7.713-12.215,20.906,4.03,35.322,4.03c23.027,0,41.753,18.736,41.753,41.764c0,16.905-10.085,32.046-25.691,38.557l-4.068,1.695
			v69.268H203.175z"/>
		<g>
			<path fill="#B6B6B6" d="M297.029,103.871c-4.563,0-8.972,0.64-13.156,1.821c-7.74-5.813-17.351-9.261-27.774-9.261
				c-10.424,0-20.044,3.448-27.774,9.261c-4.185-1.182-8.594-1.821-13.156-1.821c-26.719,0-48.371,21.661-48.371,48.38
				c0,20.121,12.284,37.366,29.76,44.66v71.476h119.071v-71.476c17.486-7.295,29.771-24.539,29.771-44.66
				C345.399,125.532,323.747,103.871,297.029,103.871z M310.543,184.705l-8.138,3.391v8.815v58.243h-0.01
				c0-3.643-2.965-6.606-6.617-6.606c-3.651,0-6.616,2.964-6.616,6.606h-6.606c0-3.643-2.965-6.606-6.617-6.606
				s-6.617,2.964-6.617,6.606h-6.605c0-3.643-2.964-6.606-6.617-6.606c-3.653,0-6.617,2.964-6.617,6.606h-6.607
				c0-3.643-2.964-6.606-6.616-6.606s-6.616,2.964-6.616,6.606h-6.607c0-3.643-2.964-6.606-6.616-6.606s-6.616,2.964-6.616,6.606
				h-0.01v-58.243v-8.815l-8.138-3.391c-13.138-5.483-21.633-18.222-21.633-32.454c0-19.385,15.762-35.147,35.147-35.147
				c0.775,0,1.549,0.03,2.314,0.077c-4.659,7.034-7.449,15.413-7.662,24.442c-0.067,0.358-0.106,0.727-0.106,1.104
				c0,3.653,2.964,6.617,6.616,6.617c3.652,0,6.617-2.964,6.617-6.617h0.088c0-18.232,14.832-33.063,33.064-33.063
				c17.941,0,32.579,14.356,33.044,32.192c-0.038,0.291-0.067,0.571-0.067,0.871c0,3.653,2.964,6.617,6.616,6.617
				s6.617-2.964,6.617-6.617h0.087c0-9.445-2.838-18.223-7.691-25.546c0.774-0.048,1.539-0.077,2.324-0.077
				c19.376,0,35.146,15.762,35.146,35.147C332.175,166.482,323.68,179.222,310.543,184.705z"/>
			<path fill="#B6B6B6" d="M236.171,175.792c0-3.652-2.964-6.607-6.617-6.607c-3.652,0-6.607,2.955-6.607,6.607v0.01v33.064l0,0
				c0,3.652,2.956,6.606,6.607,6.606s6.617-2.955,6.617-6.606l0,0v-33.064V175.792z"/>
			<path fill="#B6B6B6" d="M262.628,175.792c0-3.652-2.963-6.607-6.617-6.607c-3.653,0-6.616,2.955-6.616,6.607v0.01v33.064l0,0
				c0,3.652,2.964,6.606,6.616,6.606c3.652,0,6.617-2.955,6.617-6.606l0,0v-33.064V175.792z"/>
			<path fill="#B6B6B6" d="M289.074,175.792c0-3.652-2.955-6.607-6.606-6.607c-3.652,0-6.616,2.955-6.616,6.607v0.01v33.064l0,0
				c0,3.652,2.964,6.606,6.616,6.606s6.606-2.955,6.606-6.606l0,0v-33.064V175.792z"/>
		</g>
	</g>
	<text transform="matrix(1 0 0 1 158.3677 382.0498)" fill="#E5E8EC" font-family="'FrankRuhlHofshi-Bold'" font-size="144.3071">RH</text>
</g>
</svg>
